HIERARCHY
ROOT Hips
{
	OFFSET 0.000000 83.214638 0.000000
	CHANNELS 6 Xposition Yposition Zposition Xrotation Yrotation Zrotation
	JOINT Pelvis
	{
		OFFSET 0.000000 0.000000 0.000000
		CHANNELS 3 Xrotation Yrotation Zrotation
		JOINT LeftUpLeg
		{
			OFFSET 8.479700 -4.795502 -0.379100
			CHANNELS 3 Xrotation Yrotation Zrotation
			JOINT LeftLeg
			{
				OFFSET 0.024144 -32.555107 0.112900
				CHANNELS 3 Xrotation Yrotation Zrotation
				JOINT LeftFoot
				{
					OFFSET -0.024144 -32.638630 -3.012600
					CHANNELS 3 Xrotation Yrotation Zrotation
					JOINT LeftToeBase
					{
						OFFSET 0.970200 -13.225400 11.864200
						CHANNELS 3 Xrotation Yrotation Zrotation
						End Site
						{
							OFFSET 0.000000 12.319262 0.000000
						}
					}
					JOINT LFootTongue
					{
						OFFSET 1.142400 -1.059800 6.665200
						CHANNELS 3 Xrotation Yrotation Zrotation
						End Site
						{
							OFFSET 0.000000 12.319262 0.000000
						}
					}
				}
				JOINT LeftPantLeg
				{
					OFFSET 0.918482 -16.533964 -2.284700
					CHANNELS 3 Xrotation Yrotation Zrotation
					End Site
					{
						OFFSET 0.350399 24.744368 0.000000
					}
				}
			}
		}
		JOINT RightUpLeg
		{
			OFFSET -8.479700 -4.795502 -0.379100
			CHANNELS 3 Xrotation Yrotation Zrotation
			JOINT RightLeg
			{
				OFFSET -0.023144 -32.555092 0.112900
				CHANNELS 3 Xrotation Yrotation Zrotation
				JOINT RightFoot
				{
					OFFSET 0.023144 -32.638641 -3.012700
					CHANNELS 3 Xrotation Yrotation Zrotation
					JOINT RightToeBase
					{
						OFFSET -0.970200 -13.225400 11.864200
						CHANNELS 3 Xrotation Yrotation Zrotation
						End Site
						{
							OFFSET 0.000000 12.319244 0.000000
						}
					}
					JOINT RFootTongue
					{
						OFFSET -1.142200 -1.059800 6.665200
						CHANNELS 3 Xrotation Yrotation Zrotation
						End Site
						{
							OFFSET 0.000000 12.319243 0.000000
						}
					}
				}
				JOINT RightPantLeg
				{
					OFFSET -0.919482 -16.533978 -2.284800
					CHANNELS 3 Xrotation Yrotation Zrotation
					End Site
					{
						OFFSET -0.350400 24.744419 0.000000
					}
				}
			}
		}
	}
	JOINT Spine
	{
		OFFSET 0.000000 7.722000 1.166200
		CHANNELS 3 Xrotation Yrotation Zrotation
		JOINT Spine1
		{
			OFFSET 0.000000 12.024101 0.248800
			CHANNELS 3 Xrotation Yrotation Zrotation
			JOINT Spine2
			{
				OFFSET 0.000000 11.502998 -0.491200
				CHANNELS 3 Xrotation Yrotation Zrotation
				JOINT Neck
				{
					OFFSET 0.000000 18.430702 -3.123100
					CHANNELS 3 Xrotation Yrotation Zrotation
					JOINT Head
					{
						OFFSET 0.000000 9.051102 1.034000
						CHANNELS 3 Xrotation Yrotation Zrotation
						JOINT HairB
						{
							OFFSET 0.208400 24.786102 24.822300
							CHANNELS 3 Xrotation Yrotation Zrotation
							End Site
							{
								OFFSET 0.000000 32.263779 0.000000
							}
						}
						JOINT HairA
						{
							OFFSET -7.081100 24.428299 23.196600
							CHANNELS 3 Xrotation Yrotation Zrotation
							End Site
							{
								OFFSET 0.000000 32.263779 0.000000
							}
						}
						JOINT Hat
						{
							OFFSET 16.728800 15.048294 -15.439601
							CHANNELS 3 Xrotation Yrotation Zrotation
							End Site
							{
								OFFSET 0.000000 32.263779 0.000000
							}
						}
					}
				}
				JOINT LeftShoulder
				{
					OFFSET 6.197800 13.665199 -4.064700
					CHANNELS 3 Xrotation Yrotation Zrotation
					JOINT LeftArm
					{
						OFFSET 7.778100 -0.187103 -1.709300
						CHANNELS 3 Xrotation Yrotation Zrotation
						JOINT LeftForeArm
						{
							OFFSET 22.049376 0.000000 0.000000
							CHANNELS 3 Xrotation Yrotation Zrotation
							JOINT LeftHand
							{
								OFFSET 23.009392 0.000000 0.000000
								CHANNELS 3 Xrotation Yrotation Zrotation
								JOINT LeftHandThumb1
								{
									OFFSET 3.507191 -2.063065 3.133727
									CHANNELS 3 Xrotation Yrotation Zrotation
									JOINT LeftHandThumb2
									{
										OFFSET 3.101337 -1.790558 1.790558
										CHANNELS 3 Xrotation Yrotation Zrotation
										JOINT LeftHandThumb3
										{
											OFFSET 3.058640 -1.765907 1.765906
											CHANNELS 3 Xrotation Yrotation Zrotation
											End Site
											{
												OFFSET -0.415260 3.926476 -0.049563
											}
										}
									}
								}
								JOINT LeftHandIndex1
								{
									OFFSET 11.334419 -0.901459 3.706815
									CHANNELS 3 Xrotation Yrotation Zrotation
									JOINT LeftHandIndex2
									{
										OFFSET 3.283112 0.000000 0.000000
										CHANNELS 3 Xrotation Yrotation Zrotation
										JOINT LeftHandIndex3
										{
											OFFSET 3.323853 0.000000 0.000000
											CHANNELS 3 Xrotation Yrotation Zrotation
											End Site
											{
												OFFSET -1.135597 3.097809 0.402452
											}
										}
									}
								}
								JOINT LeftHandMiddle1
								{
									OFFSET 11.335861 0.000000 0.000000
									CHANNELS 3 Xrotation Yrotation Zrotation
									JOINT LeftHandMiddle2
									{
										OFFSET 3.410492 0.000000 0.000000
										CHANNELS 3 Xrotation Yrotation Zrotation
										JOINT LeftHandMiddle3
										{
											OFFSET 3.312172 0.000000 0.000000
											CHANNELS 3 Xrotation Yrotation Zrotation
											End Site
											{
												OFFSET -1.150200 3.080154 0.400270
											}
										}
									}
								}
								JOINT LeftHandRing1
								{
									OFFSET 11.514786 -0.013176 -3.003090
									CHANNELS 3 Xrotation Yrotation Zrotation
									JOINT LeftHandRing2
									{
										OFFSET 3.053307 0.000000 0.000000
										CHANNELS 3 Xrotation Yrotation Zrotation
										JOINT LeftHandRing3
										{
											OFFSET 3.295807 0.000000 0.000000
											CHANNELS 3 Xrotation Yrotation Zrotation
											End Site
											{
												OFFSET -1.281006 3.013344 0.375733
											}
										}
									}
								}
								JOINT LeftHandPinky1
								{
									OFFSET 10.518692 -0.960396 -5.730441
									CHANNELS 3 Xrotation Yrotation Zrotation
									JOINT LeftHandPinky2
									{
										OFFSET 2.861649 0.000000 0.000000
										CHANNELS 3 Xrotation Yrotation Zrotation
										JOINT LeftHandPinky3
										{
											OFFSET 2.863380 0.000000 0.000000
											CHANNELS 3 Xrotation Yrotation Zrotation
											End Site
											{
												OFFSET -0.843597 2.711159 0.369971
											}
										}
									}
								}
							}
							JOINT LSleeve
							{
								OFFSET 6.676277 -0.344902 -1.011730
								CHANNELS 3 Xrotation Yrotation Zrotation
								End Site
								{
									OFFSET 0.000000 14.885353 0.000000
								}
							}
						}
					}
				}
				JOINT RightShoulder
				{
					OFFSET -6.197800 13.665199 -4.064700
					CHANNELS 3 Xrotation Yrotation Zrotation
					JOINT RightArm
					{
						OFFSET -7.778100 -0.187103 -1.709300
						CHANNELS 3 Xrotation Yrotation Zrotation
						JOINT RightForeArm
						{
							OFFSET -22.049376 0.000000 0.000000
							CHANNELS 3 Xrotation Yrotation Zrotation
							JOINT RightHand
							{
								OFFSET -23.009392 0.000000 0.000000
								CHANNELS 3 Xrotation Yrotation Zrotation
								JOINT RightHandThumb1
								{
									OFFSET -3.507191 -2.063065 3.133727
									CHANNELS 3 Xrotation Yrotation Zrotation
									JOINT RightHandThumb2
									{
										OFFSET -3.101337 -1.790558 1.790558
										CHANNELS 3 Xrotation Yrotation Zrotation
										JOINT RightHandThumb3
										{
											OFFSET -3.058640 -1.765907 1.765906
											CHANNELS 3 Xrotation Yrotation Zrotation
											End Site
											{
												OFFSET 0.415260 3.926476 -0.049563
											}
										}
									}
								}
								JOINT RightHandIndex1
								{
									OFFSET -11.334419 -0.901459 3.706815
									CHANNELS 3 Xrotation Yrotation Zrotation
									JOINT RightHandIndex2
									{
										OFFSET -3.283112 0.000000 0.000000
										CHANNELS 3 Xrotation Yrotation Zrotation
										JOINT RightHandIndex3
										{
											OFFSET -3.323853 0.000000 0.000000
											CHANNELS 3 Xrotation Yrotation Zrotation
											End Site
											{
												OFFSET 1.135597 3.097809 0.402452
											}
										}
									}
								}
								JOINT RightHandMiddle1
								{
									OFFSET -11.335861 0.000000 0.000000
									CHANNELS 3 Xrotation Yrotation Zrotation
									JOINT RightHandMiddle2
									{
										OFFSET -3.410492 0.000000 0.000000
										CHANNELS 3 Xrotation Yrotation Zrotation
										JOINT RightHandMiddle3
										{
											OFFSET -3.312172 0.000000 0.000000
											CHANNELS 3 Xrotation Yrotation Zrotation
											End Site
											{
												OFFSET 1.150200 3.080154 0.400270
											}
										}
									}
								}
								JOINT RightHandRing1
								{
									OFFSET -11.514786 -0.013176 -3.003090
									CHANNELS 3 Xrotation Yrotation Zrotation
									JOINT RightHandRing2
									{
										OFFSET -3.053307 0.000000 0.000000
										CHANNELS 3 Xrotation Yrotation Zrotation
										JOINT RightHandRing3
										{
											OFFSET -3.295807 0.000000 0.000000
											CHANNELS 3 Xrotation Yrotation Zrotation
											End Site
											{
												OFFSET 1.281006 3.013344 0.375733
											}
										}
									}
								}
								JOINT RightHandPinky1
								{
									OFFSET -10.518692 -0.960396 -5.730441
									CHANNELS 3 Xrotation Yrotation Zrotation
									JOINT RightHandPinky2
									{
										OFFSET -2.861649 0.000000 0.000000
										CHANNELS 3 Xrotation Yrotation Zrotation
										JOINT RightHandPinky3
										{
											OFFSET -2.863380 0.000000 0.000000
											CHANNELS 3 Xrotation Yrotation Zrotation
											End Site
											{
												OFFSET 0.843597 2.711159 0.369971
											}
										}
									}
								}
							}
							JOINT RSleeve
							{
								OFFSET -6.676277 -0.344902 -1.011730
								CHANNELS 3 Xrotation Yrotation Zrotation
								End Site
								{
									OFFSET 0.000000 14.885353 0.000000
								}
							}
						}
					}
				}
				JOINT Backpack
				{
					OFFSET 0.000000 -2.471497 36.677502
					CHANNELS 3 Xrotation Yrotation Zrotation
					End Site
					{
						OFFSET 0.000000 20.427315 0.000000
					}
				}
				JOINT Hood
				{
					OFFSET 0.000000 18.754097 -10.431000
					CHANNELS 3 Xrotation Yrotation Zrotation
					JOINT Hood1
					{
						OFFSET 0.000000 -5.011002 -7.685901
						CHANNELS 3 Xrotation Yrotation Zrotation
						End Site
						{
							OFFSET 0.000000 9.175140 0.000000
						}
					}
				}
				JOINT LHoodieString
				{
					OFFSET 5.250500 16.397697 3.089900
					CHANNELS 3 Xrotation Yrotation Zrotation
					JOINT LHoodieString1
					{
						OFFSET 0.257700 -6.364304 3.694600
						CHANNELS 3 Xrotation Yrotation Zrotation
						JOINT LHoodieString2
						{
							OFFSET 0.000000 -9.643799 2.679100
							CHANNELS 3 Xrotation Yrotation Zrotation
							End Site
							{
								OFFSET 0.000000 10.009018 0.000000
							}
						}
					}
				}
				JOINT RHoodieString
				{
					OFFSET -5.250500 16.397697 3.089900
					CHANNELS 3 Xrotation Yrotation Zrotation
					JOINT RHoodieString1
					{
						OFFSET -0.257700 -6.364304 3.694600
						CHANNELS 3 Xrotation Yrotation Zrotation
						JOINT RHoodieString2
						{
							OFFSET 0.000000 -9.643799 2.679100
							CHANNELS 3 Xrotation Yrotation Zrotation
							End Site
							{
								OFFSET 0.000000 10.009018 0.000000
							}
						}
					}
				}
			}
			JOINT LBackpack_Strap
			{
				OFFSET 15.223200 -7.719803 -6.610900
				CHANNELS 3 Xrotation Yrotation Zrotation
				End Site
				{
					OFFSET 0.000000 16.040596 0.000000
				}
			}
			JOINT RBackpack_Strap
			{
				OFFSET -15.223000 -7.719803 -6.610900
				CHANNELS 3 Xrotation Yrotation Zrotation
				End Site
				{
					OFFSET 0.000000 16.040596 0.000000
				}
			}
		}
	}
	JOINT BoyFacialAnim_Joint
	{
		OFFSET 1.000000 -82.208099 -1.550900
		CHANNELS 3 Xrotation Yrotation Zrotation
		End Site
		{
			OFFSET 0.000000 30.012791 0.000000
		}
	}
}
MOTION
Frames: 4
Frame Time: 0.033333
-0.213658 79.004471 0.079757 8.683784 -55.262900 4.701293 0.000000 0.000002 -0.000000 -42.925031 -6.238422 16.010891 67.931996 19.817777 -12.099524 4.738730 -4.069941 -4.553063 0.000000 0.000000 0.000001 0.000000 0.000000 0.000001 -0.000001 0.000000 -0.000001 -29.433898 -14.478908 1.337111 40.499142 0.919694 -7.496866 -15.992855 8.780470 2.906120 -0.000000 0.000001 0.000000 -0.000000 0.000001 0.000000 -0.000000 0.000003 -0.000000 13.921741 -2.162361 -8.235213 -0.020108 -1.788383 1.776475 0.131344 -1.702465 1.856573 3.888462 23.895707 -3.511292 -15.039042 37.050409 6.569950 0.000000 0.000000 -0.000001 0.000000 0.000000 -0.000001 0.000000 0.000000 -0.000001 -10.316055 -11.775559 -21.652837 3.940519 -0.155504 -24.542178 7.797330 -48.830023 10.957931 -10.714730 8.163745 20.515817 -4.181873 -7.560785 8.240458 3.487119 20.081649 -1.657243 -0.000003 -0.000000 -0.000000 13.099395 -1.380895 11.525499 -0.166748 0.301805 -31.105651 0.000002 0.000000 -0.000000 8.712917 0.245836 -0.436477 0.243304 0.658676 -29.901892 0.000002 -0.000002 -0.000000 6.349480 3.539430 -15.335506 0.038773 0.309437 -30.125372 0.000001 -0.000005 -0.000001 -5.567387 7.917929 -13.425393 0.222280 0.288645 -46.588348 -0.000001 0.000003 0.000002 0.000001 0.000001 0.000001 -7.583185 12.654490 6.092047 -74.277686 -35.703195 -34.991705 26.168051 123.735693 -10.125150 -8.684320 5.704587 -7.052428 -2.922619 9.655984 -10.615405 2.503633 -17.503024 2.604917 0.000000 0.000002 0.000001 19.364771 11.447504 -14.234126 -0.109494 -0.320597 18.035584 -0.000002 -0.000002 0.000001 4.530053 1.890124 -5.331739 0.346379 -0.445613 26.890042 0.000002 0.000000 -0.000004 -6.892037 -10.887602 4.761093 0.090532 -0.092449 26.155767 0.000002 0.000002 0.000003 -19.521430 -20.358144 5.449605 0.226772 -0.066015 36.844557 -0.000001 -0.000004 -0.000000 0.000001 -0.000002 -0.000002 0.000001 0.000003 -0.000000 0.000001 0.000003 -0.000000 0.000001 0.000003 -0.000000 0.000001 0.000003 -0.000000 0.000001 0.000003 -0.000000 -0.000000 -0.000000 -0.000000 0.000001 0.000003 -0.000000 0.000001 0.000003 -0.000000 -0.000000 -0.000000 -0.000000 0.000001 0.000000 -0.000002 0.000001 0.000000 -0.000002 0.000000 0.000002 -0.000000 
-2.965914 79.299255 0.611771 9.366567 -55.268900 5.794466 0.000000 0.000001 -0.000000 -46.994434 1.088486 12.596710 60.732901 18.006096 -10.549044 4.460524 -3.958195 -2.424465 0.000000 0.000002 -0.000001 0.000000 0.000002 -0.000002 -0.000002 0.000000 0.000000 -26.800312 -14.435980 2.024850 39.533135 0.598327 -7.476486 -17.976397 8.876457 2.375009 -0.000000 0.000001 0.000000 -0.000000 0.000001 0.000000 0.000000 -0.000000 -0.000001 14.047121 -1.995846 -7.359391 -0.253818 -1.653443 1.001738 -0.130782 -1.615435 1.080558 2.522037 23.122036 -1.727887 -12.880703 37.853578 5.323513 0.000001 0.000000 0.000000 0.000001 0.000000 0.000000 0.000001 0.000000 0.000000 -10.113748 -10.974705 -21.603917 3.611534 0.208063 -24.662223 8.342146 -48.707380 11.386381 -10.593565 7.503571 20.511652 -4.307568 -7.759702 8.331233 3.440783 19.943213 -1.703752 -0.000000 0.000001 0.000002 13.098790 -1.380796 11.347977 -0.167949 0.301093 -29.996944 -0.000001 -0.000001 -0.000002 8.711925 0.246831 -0.607135 0.241212 0.657406 -29.530965 0.000000 -0.000000 0.000000 6.350814 3.536715 -14.964574 0.038604 0.306913 -29.754531 -0.000000 0.000001 0.000002 -5.567280 7.916011 -13.053268 0.220828 0.287433 -46.217500 -0.000000 -0.000001 -0.000000 -0.000000 -0.000000 0.000003 -7.524973 13.090396 6.169865 -74.959994 -35.037494 -36.368643 27.134714 122.011385 -11.199617 -8.551388 7.692460 -7.424335 -2.917378 9.639009 -10.619056 2.510173 -17.515964 2.604199 0.000001 0.000000 -0.000002 19.355093 11.448172 -15.148340 -0.110351 -0.319781 17.122980 -0.000000 0.000001 -0.000002 4.536078 1.894925 -6.244277 0.341524 -0.442220 25.977574 0.000003 0.000001 -0.000004 -6.886957 -10.870462 3.847120 0.090622 -0.086325 25.243194 -0.000000 0.000003 0.000003 -19.497451 -20.334028 4.539796 0.223786 -0.062484 35.931996 -0.000000 0.000000 0.000000 0.000000 0.000001 -0.000004 0.000003 0.000000 -0.000000 0.000003 0.000000 -0.000000 0.000003 0.000000 -0.000000 0.000003 0.000000 -0.000000 0.000003 0.000000 -0.000000 0.000002 0.000000 -0.000000 0.000003 0.000000 -0.000000 0.000003 0.000000 -0.000000 0.000002 0.000000 -0.000000 0.000002 -0.000000 -0.000000 0.000002 -0.000000 -0.000000 0.000000 0.000001 -0.000000 
-5.836750 79.342400 1.149166 10.238728 -55.645152 6.929717 -0.000000 -0.000001 -0.000000 -48.371150 8.072398 9.258000 50.557726 17.377236 -8.880787 3.102846 -4.339566 -3.621855 -0.000001 -0.000000 0.000000 -0.000001 -0.000000 0.000000 -0.000001 -0.000001 -0.000000 -24.350594 -14.337947 2.906070 39.038926 0.515569 -7.406509 -20.201782 9.065709 1.457882 -0.000000 -0.000000 0.000000 -0.000000 -0.000000 0.000000 -0.000003 0.000001 -0.000001 13.309068 -1.635488 -6.227314 0.000786 -1.342288 0.125301 0.083511 -1.331264 0.179412 1.780925 22.634473 -0.807474 -11.931370 38.296085 4.836252 0.000001 -0.000000 -0.000001 0.000001 -0.000000 -0.000001 0.000001 -0.000000 -0.000001 -9.852393 -10.035302 -21.553789 3.397424 0.441536 -24.430893 8.252100 -48.779626 11.546565 -10.504244 7.126578 20.212832 -4.439337 -7.979715 8.414744 3.383548 19.789532 -1.757952 0.000002 0.000001 0.000002 13.098363 -1.380758 11.230338 -0.169322 0.300214 -28.747371 0.000000 0.000000 -0.000000 8.711225 0.247540 -0.720271 0.238890 0.655958 -29.112872 0.000001 -0.000003 -0.000004 6.352250 3.533688 -14.546551 0.038458 0.304116 -29.336421 0.000001 -0.000001 -0.000004 -5.567278 7.913844 -12.634115 0.219246 0.286103 -45.799273 -0.000001 -0.000001 -0.000000 -0.000000 0.000002 0.000006 -7.475897 13.620067 6.384435 -76.076436 -33.752046 -37.943217 28.368419 120.643011 -12.506262 -8.480481 8.949407 -7.601446 -2.914942 9.628945 -10.622548 2.513909 -17.523361 2.603792 -0.000002 0.000002 -0.000005 19.346958 11.448867 -16.191896 -0.111294 -0.318880 16.080681 -0.000000 0.000001 0.000002 4.543096 1.900362 -7.286604 0.338285 -0.438195 24.935344 0.000001 0.000001 0.000002 -6.881299 -10.854890 2.803986 0.090874 -0.079322 24.200929 -0.000001 0.000003 0.000001 -19.477411 -20.313123 3.499859 0.220789 -0.058437 34.889726 0.000001 -0.000003 0.000001 -0.000000 -0.000001 -0.000004 0.000001 0.000002 -0.000000 0.000001 0.000002 -0.000000 0.000001 0.000002 -0.000000 0.000001 0.000002 -0.000000 0.000001 0.000002 -0.000000 -0.000000 0.000000 -0.000000 0.000001 0.000002 -0.000000 0.000001 0.000002 -0.000000 -0.000000 0.000000 -0.000000 -0.000000 -0.000000 0.000000 -0.000000 -0.000000 0.000000 -0.000000 -0.000001 -0.000000 
-8.731618 79.012062 1.712586 11.286680 -56.868616 7.794837 -0.000000 -0.000002 0.000001 -47.212600 14.154687 6.780172 37.973772 16.565698 -7.245727 2.053775 -4.408817 -8.860631 -0.000001 0.000000 -0.000000 -0.000001 0.000000 -0.000000 -0.000000 0.000000 0.000001 -22.166576 -13.877253 4.306211 39.388734 0.666167 -7.344930 -22.751603 9.254942 0.593650 0.000000 0.000003 0.000000 0.000000 0.000003 0.000000 -0.000002 0.000002 -0.000002 12.040000 -1.048390 -4.868139 0.529266 -0.717722 -0.602128 0.571214 -0.712520 -0.582741 1.613164 22.608029 -0.629722 -11.758680 38.538236 4.907826 0.000001 0.000000 0.000001 0.000001 0.000000 0.000001 0.000001 0.000000 0.000001 -9.534140 -8.877121 -21.689973 3.234893 0.649150 -23.817911 3.949442 -49.543768 8.347028 -7.695752 7.427697 19.810842 -4.574696 -8.211919 8.493727 3.322890 19.625686 -1.815669 0.000002 0.000001 -0.000000 13.096710 -1.380736 11.147449 -0.170711 0.299315 -27.416265 -0.000001 0.000001 0.000000 8.710783 0.247971 -0.800042 0.236860 0.654416 -28.667585 0.000000 -0.000002 -0.000000 6.353863 3.530464 -14.101207 0.038328 0.301104 -28.891123 -0.000002 0.000001 -0.000000 -5.567157 7.911500 -12.187707 0.217534 0.284604 -45.353979 0.000000 0.000001 -0.000000 -0.000001 -0.000001 0.000004 -7.486073 13.841710 6.719301 -77.001060 -31.419109 -39.086290 29.948334 119.683301 -14.114201 -8.472515 9.355990 -7.465539 -2.913156 9.621261 -10.625566 2.516684 -17.530063 2.602443 -0.000001 0.000001 -0.000002 19.343557 11.449290 -17.280201 -0.112285 -0.317858 14.993445 0.000002 0.000003 0.000006 4.550511 1.905877 -8.373995 0.335924 -0.433913 23.848167 -0.000000 -0.000000 0.000003 -6.875552 -10.844714 1.716239 0.091246 -0.072083 23.113722 -0.000000 0.000001 0.000002 -19.466075 -20.298581 2.413780 0.218200 -0.054104 33.802531 -0.000002 -0.000003 -0.000000 -0.000000 -0.000000 -0.000004 0.000002 0.000000 -0.000001 0.000002 0.000000 -0.000001 0.000002 0.000000 -0.000001 0.000002 0.000000 -0.000001 0.000002 0.000000 0.000000 0.000001 0.000002 -0.000000 0.000002 0.000000 -0.000001 0.000002 0.000000 0.000000 0.000001 0.000002 -0.000000 0.000001 0.000000 -0.000001 0.000001 0.000000 -0.000001 -0.000000 -0.000002 0.000001 
